<?xml version="1.0" standalone="no"?>
<!DOCTYPE svg PUBLIC "-//W3C//DTD SVG 20010904//EN"
 "http://www.w3.org/TR/2001/REC-SVG-20010904/DTD/svg10.dtd">
<svg version="1.0" xmlns="http://www.w3.org/2000/svg"
 width="323.000000pt" height="308.000000pt" viewBox="0 0 323.000000 308.000000"
 preserveAspectRatio="xMidYMid meet">

<g transform="translate(0.000000,308.000000) scale(0.100000,-0.100000)"
fill="#000000" stroke="none">
<path d="M993 2906 c-43 -16 -51 -26 -31 -37 11 -6 15 -18 12 -36 -7 -36 -7
-36 -31 -14 -27 26 -113 20 -113 -7 0 -4 16 -20 36 -36 32 -25 39 -27 48 -14
15 20 44 29 52 16 8 -13 -15 -28 -33 -21 -28 11 -11 -15 52 -77 50 -50 67 -62
77 -52 9 9 7 16 -7 32 -16 17 -16 24 -6 44 9 17 10 29 3 42 -9 16 -10 15 -17
-6 -10 -32 -32 -53 -40 -40 -3 5 0 10 7 10 9 1 7 5 -4 14 -24 18 -22 25 5 19
16 -3 18 -2 8 5 -11 8 -10 11 5 15 17 4 17 6 -3 12 -26 8 -31 35 -8 35 8 0 15
-7 15 -15 0 -8 9 -15 20 -15 25 0 25 4 -2 35 -16 19 -24 22 -30 13 -5 -9 -8
-8 -8 5 0 12 8 17 31 17 19 0 28 -4 24 -11 -4 -6 2 -13 14 -16 24 -6 25 -8 11
-34 -8 -13 -8 -24 0 -37 9 -15 10 -14 5 5 -10 37 55 52 91 22 8 -7 24 -7 46
-1 18 5 39 7 46 4 7 -2 19 2 27 8 21 17 19 7 -4 -18 -10 -12 -26 -22 -35 -22
-26 0 -18 -30 11 -41 22 -8 30 -7 39 5 6 9 19 16 28 16 9 0 16 5 16 12 0 6 3
8 7 5 3 -4 -1 -15 -9 -24 -31 -37 -31 -44 -1 -38 25 6 26 5 11 -8 -21 -17 -23
-38 -5 -56 8 -8 2 -8 -23 2 -50 21 -84 16 -88 -12 -3 -15 -8 -21 -19 -17 -8 3
-21 0 -28 -8 -12 -11 -12 -19 -2 -40 15 -32 27 -33 27 -3 0 33 10 40 27 19 12
-15 13 -14 8 13 -3 17 -2 24 1 18 9 -19 25 -16 22 4 -4 21 27 29 47 13 17 -14
21 -90 5 -90 -5 0 -10 -15 -10 -34 0 -51 -17 -53 -26 -4 -7 39 -8 41 -15 18
l-7 -25 -7 23 c-10 32 -22 27 -17 -7 3 -23 -1 -33 -22 -46 l-25 -17 26 -39
c14 -21 33 -39 42 -39 14 0 14 -2 1 -10 -12 -8 -12 -12 -3 -18 7 -4 24 -30 38
-57 14 -28 25 -45 26 -40 0 6 7 -11 15 -37 8 -27 19 -48 25 -48 5 0 9 -6 7
-12 -2 -11 30 -88 63 -150 5 -10 9 -27 9 -37 0 -24 17 -36 33 -23 27 22 234
41 221 21 -3 -5 5 -9 18 -9 13 0 29 -5 34 -10 8 -8 15 -6 24 5 11 13 9 15 -13
15 -14 0 -27 6 -30 13 -2 8 -29 12 -88 11 -46 0 -67 2 -46 4 20 2 37 7 37 13
0 14 58 11 63 -3 2 -7 8 -10 12 -6 4 4 1 14 -7 22 -12 11 -23 12 -61 3 -46
-10 -74 -4 -48 12 10 6 8 10 -5 15 -12 4 -23 1 -29 -7 -13 -18 -59 -12 -76 9
-12 14 1 19 44 15 23 -3 22 11 -3 32 -12 10 -18 22 -14 28 5 9 53 -26 76 -56
5 -6 8 -3 8 7 0 9 14 26 30 38 38 27 38 40 -1 40 -24 0 -29 -3 -21 -12 7 -9 6
-17 -5 -27 -12 -11 -15 -10 -20 8 -3 12 -9 21 -14 21 -5 0 -9 6 -9 14 0 15
-21 12 -74 -9 -15 -7 -17 -5 -12 11 8 27 -38 93 -48 68 -4 -9 -4 -19 -1 -22 3
-3 5 1 5 8 0 7 3 10 6 7 4 -4 1 -13 -5 -21 -10 -11 -7 -17 11 -30 12 -9 18
-16 13 -16 -5 0 0 -7 11 -16 18 -14 18 -15 -6 -8 -14 4 -29 12 -33 18 -4 6 -6
-5 -5 -24 3 -35 7 -38 41 -25 12 5 17 2 17 -10 0 -12 -6 -16 -20 -12 -14 4
-20 0 -20 -11 0 -13 -3 -12 -15 4 -8 10 -15 32 -15 47 0 16 -4 26 -10 22 -6
-3 -5 6 2 20 11 23 10 29 -6 41 -17 12 -17 14 -2 29 21 21 10 38 -21 32 -35
-6 -23 17 13 24 l29 7 -27 1 c-21 1 -28 7 -33 31 -4 17 -11 30 -16 30 -5 0 -9
4 -9 9 0 12 39 21 46 10 3 -5 10 -7 15 -3 5 3 -1 14 -13 24 -30 24 -17 36 24
24 26 -8 34 -16 36 -37 3 -28 17 -36 25 -14 5 17 -3 47 -14 47 -5 0 -9 5 -9
11 0 7 -7 17 -16 23 -14 10 -14 14 0 41 9 17 16 39 16 51 0 12 6 21 15 21 10
0 14 -6 10 -15 -3 -7 4 -25 15 -39 21 -27 27 -78 10 -88 -16 -10 -12 -35 5
-35 13 0 14 -4 5 -20 -9 -17 -8 -20 9 -20 17 0 19 -4 12 -22 -5 -13 -14 -22
-20 -21 -6 2 -9 -3 -6 -10 14 -45 14 -67 0 -81 -13 -13 -10 -14 30 -13 25 1
44 6 43 12 -1 5 2 18 6 27 4 9 6 27 4 40 l-5 23 -11 -25 c-6 -14 -11 -21 -11
-16 -1 5 -9 2 -18 -5 -15 -13 -16 -11 -10 11 4 14 7 31 7 38 0 6 4 12 10 12 5
0 7 -7 4 -15 -4 -8 -1 -15 5 -15 13 0 15 53 2 78 -4 9 -21 55 -36 102 -30 93
-65 173 -77 178 -4 2 -8 10 -8 18 0 23 -65 118 -108 156 -26 24 -48 36 -61 33
-11 -2 -24 1 -27 7 -4 6 -2 8 4 4 23 -14 20 13 -3 28 -14 9 -25 13 -25 10 0
-4 -8 0 -17 8 -21 18 -100 39 -140 37 -15 -1 -42 -7 -60 -13z m102 -28 c-6
-15 -4 -20 6 -16 8 3 25 8 39 12 18 5 21 5 10 -3 -12 -9 -12 -11 3 -17 9 -3
24 -4 32 0 8 3 15 0 16 -7 0 -9 2 -9 6 1 12 29 20 9 11 -28 -6 -22 -14 -38
-18 -35 -5 3 -6 14 -3 25 7 27 -24 38 -41 15 -7 -10 -18 -15 -25 -11 -9 6 -9
11 -1 21 10 12 5 13 -24 8 -43 -7 -61 19 -30 42 25 19 26 19 19 -7z m-218 -73
c0 -8 -4 -12 -9 -9 -4 3 -8 9 -8 15 0 5 4 9 8 9 5 0 9 -7 9 -15z m33 -5 c0 -5
-2 -10 -4 -10 -3 0 -8 5 -11 10 -3 6 -1 10 4 10 6 0 11 -4 11 -10z m404 -45
c-7 -16 -24 -21 -24 -6 0 8 7 13 27 20 1 1 0 -6 -3 -14z m61 -105 c3 -5 1 -10
-4 -10 -6 0 -11 5 -11 10 0 6 2 10 4 10 3 0 8 -4 11 -10z m35 0 c0 -5 -2 -10
-4 -10 -3 0 -8 5 -11 10 -3 6 -1 10 4 10 6 0 11 -4 11 -10z m8 -43 c2 -9 -1
-17 -7 -17 -6 0 -11 4 -11 10 0 5 -7 7 -15 4 -9 -4 -15 0 -15 8 0 21 44 15 48
-5z m-20 -29 c-6 -18 -28 -21 -28 -4 0 9 7 16 16 16 9 0 14 -5 12 -12z m46
-14 c3 -8 2 -13 -3 -10 -14 9 -36 -24 -37 -57 -1 -16 -7 -33 -14 -37 -6 -4
-11 -11 -11 -16 2 -16 -21 -10 -33 9 -8 13 -8 19 0 25 7 4 13 16 15 26 2 10
13 24 24 30 11 6 27 19 35 28 18 21 17 21 24 2z m-166 -154 c0 -27 -2 -50 -6
-50 -6 0 -8 53 -4 88 4 27 9 9 10 -38z m36 -66 c4 -9 4 -19 2 -21 -8 -8 -26 8
-26 23 0 19 16 18 24 -2z m28 -86 c-9 -9 -12 -8 -12 5 0 9 -5 17 -11 17 -5 0
-7 5 -3 11 4 7 11 6 22 -5 13 -12 14 -18 4 -28z m128 -238 c0 -5 -2 -10 -4
-10 -3 0 -8 5 -11 10 -3 6 -1 10 4 10 6 0 11 -4 11 -10z m21 -33 c-1 -12 -15
-9 -19 4 -3 6 1 10 8 8 6 -3 11 -8 11 -12z m69 -11 c0 -2 -11 -6 -25 -8 -13
-3 -22 -1 -19 3 5 9 44 13 44 5z m-85 -26 c3 -5 1 -10 -4 -10 -6 0 -11 5 -11
10 0 6 2 10 4 10 3 0 8 -4 11 -10z"/>
<path d="M2085 2900 c-11 -4 -30 -10 -42 -15 -13 -4 -23 -11 -23 -16 0 -5 -8
-9 -19 -9 -17 0 -141 -108 -141 -123 0 -4 -9 -18 -20 -30 -12 -12 -16 -23 -10
-25 5 -2 1 -11 -9 -20 -27 -23 -54 -76 -76 -147 -10 -33 -22 -65 -27 -71 -10
-14 1 -122 13 -130 5 -3 9 -15 9 -27 -1 -21 -1 -21 -14 -4 -10 13 -15 15 -19
5 -2 -7 -8 -9 -13 -5 -4 4 -3 17 4 27 15 24 16 80 2 80 -5 0 -10 -13 -10 -29
0 -17 -4 -33 -10 -36 -5 -3 -10 -17 -10 -31 0 -13 -4 -24 -10 -24 -14 0 -12
-32 4 -52 19 -25 29 -22 51 15 15 25 20 28 23 14 2 -10 -2 -24 -8 -32 -11 -13
-5 -15 38 -15 47 0 51 2 67 36 20 42 14 52 -20 36 -15 -7 -27 -8 -30 -2 -4 6
1 10 9 10 9 0 16 6 16 14 0 19 27 28 34 10 3 -8 15 -14 26 -14 21 0 27 -15 10
-25 -8 -5 -8 -11 0 -20 9 -10 7 -21 -4 -42 l-15 -28 6 33 c3 20 2 32 -6 32 -6
0 -11 -9 -11 -19 0 -11 -6 -22 -12 -24 -10 -4 -10 -8 1 -15 7 -5 10 -15 7 -21
-10 -16 -26 -13 -26 5 0 11 -5 14 -16 10 -9 -3 -18 -6 -20 -6 -2 0 -4 -9 -4
-20 0 -11 6 -20 13 -20 8 0 7 -3 -3 -9 -8 -6 -18 -7 -22 -5 -4 3 -8 1 -8 -5 0
-5 5 -13 10 -16 6 -3 17 -21 26 -38 11 -24 11 -28 1 -14 -19 23 -24 22 -24 -8
0 -14 3 -25 8 -25 5 0 9 -7 9 -15 0 -8 -4 -15 -10 -15 -5 0 -10 5 -10 11 0 15
-31 38 -50 38 -10 0 -5 -8 13 -24 16 -14 26 -29 23 -34 -4 -5 0 -11 6 -14 15
-5 50 32 43 44 -3 4 -1 10 5 14 5 3 10 15 10 26 0 10 5 19 10 19 6 0 10 6 10
13 0 6 22 56 50 109 44 87 47 99 32 107 -9 5 -13 13 -8 18 5 4 11 2 13 -4 8
-22 25 -14 18 7 -5 16 -3 19 11 13 14 -5 16 -2 12 15 -4 15 -2 19 8 15 8 -3
14 0 14 6 0 13 90 142 129 184 23 25 18 40 -5 17 -6 -6 -24 -13 -40 -16 -16
-3 -32 -11 -36 -17 -11 -17 -10 -37 2 -37 6 0 10 7 10 15 0 8 5 15 10 15 14 0
12 -12 -6 -35 -12 -16 -16 -17 -23 -6 -6 9 -10 10 -16 2 -4 -7 -2 -18 5 -26 7
-9 8 -15 0 -20 -5 -3 -10 -2 -10 3 0 5 -10 12 -21 15 -21 6 -21 6 6 29 24 21
26 26 14 50 -6 15 -16 25 -21 22 -5 -3 -2 -15 8 -25 17 -19 14 -23 -18 -20
-10 1 -18 -4 -18 -13 0 -9 -4 -16 -10 -16 -5 0 -10 11 -10 25 0 14 -4 25 -10
25 -5 0 -10 -20 -10 -44 0 -40 2 -44 30 -49 33 -7 42 -40 15 -51 -8 -3 -15
-12 -15 -19 0 -21 -27 -40 -42 -31 -9 6 -7 10 8 14 18 4 20 9 13 28 -12 31
-84 33 -94 2 -12 -38 -23 -10 -21 53 1 34 8 73 15 86 12 22 12 24 -8 18 -27
-7 -28 9 -1 18 11 3 20 11 20 17 0 6 -7 7 -17 3 -39 -16 -56 -15 -25 1 23 12
30 20 23 27 -18 18 -12 29 12 22 12 -4 17 -3 10 2 -20 14 7 83 35 90 17 4 22
11 19 24 -3 11 -1 19 4 19 5 0 9 -6 9 -14 0 -8 2 -21 5 -28 4 -9 -2 -14 -16
-15 -12 -1 -26 -7 -30 -14 -8 -13 0 -44 9 -35 3 3 10 -1 16 -9 6 -8 23 -16 38
-17 15 -1 30 -8 32 -15 3 -7 13 -13 23 -13 15 0 14 3 -5 16 -27 19 -28 41 -2
49 23 7 27 35 6 35 -8 0 -17 7 -20 16 -4 10 -13 13 -26 9 -14 -5 -20 -2 -20 9
0 9 4 16 9 16 5 0 11 13 14 29 6 28 47 64 47 41 0 -5 -7 -10 -15 -10 -8 0 -15
-7 -15 -16 0 -14 3 -14 15 -4 13 10 15 9 15 -10 0 -16 -4 -20 -15 -16 -9 3
-15 0 -15 -8 0 -8 9 -16 21 -19 15 -4 19 -2 15 8 -3 8 3 19 12 24 14 8 15 13
5 30 -14 22 -7 51 11 51 22 0 26 -13 10 -31 -14 -16 -14 -19 11 -35 20 -13 23
-19 13 -26 -10 -8 -10 -11 0 -15 6 -2 12 -12 12 -22 0 -9 5 -22 12 -29 8 -8 8
-12 1 -12 -6 0 -14 -7 -17 -16 -5 -14 -1 -16 23 -11 21 4 33 1 46 -13 16 -18
17 -20 2 -20 -10 0 -17 7 -17 17 0 14 -2 14 -20 -2 -11 -10 -20 -13 -20 -7 0
6 -7 9 -15 6 -8 -4 -12 -10 -9 -15 3 -5 10 -7 15 -4 5 4 9 2 9 -4 0 -6 7 -8
16 -4 11 4 22 -1 31 -12 12 -18 16 -17 58 25 24 24 43 46 40 48 -2 3 -11 0
-18 -6 -10 -9 -16 -7 -26 7 -8 11 -22 16 -36 14 -20 -4 -22 -1 -22 36 0 28 4
41 13 41 8 0 14 7 14 15 0 10 7 15 17 13 10 -2 18 4 19 12 3 35 4 40 14 40 6
0 10 -10 10 -21 0 -18 2 -19 15 -9 11 9 15 9 15 1 0 -7 3 -10 8 -8 4 3 15 -5
24 -18 17 -22 16 -23 -5 -29 -14 -4 -26 0 -34 11 -7 9 -16 14 -19 10 -7 -6 20
-37 32 -37 4 0 15 -7 24 -15 15 -14 18 -14 30 0 11 13 9 15 -11 15 -22 1 -22
2 -6 11 10 6 26 9 36 6 9 -2 32 8 50 24 32 26 33 29 17 45 -10 9 -47 32 -83
50 -56 29 -75 34 -132 33 -36 -1 -75 -4 -86 -9z m55 -20 c-7 -4 -9 -13 -5 -20
6 -9 9 -9 16 1 6 9 8 0 8 -26 0 -22 -3 -34 -6 -27 -2 6 -15 12 -27 12 -19 0
-22 5 -22 33 1 27 5 32 25 34 16 1 20 -2 11 -7z m125 -20 c-5 -16 -3 -19 12
-14 16 6 16 5 -1 -8 -17 -13 -23 -13 -57 1 -24 10 -34 20 -28 26 6 5 13 5 21
-3 17 -17 38 -15 38 3 0 8 5 15 11 15 6 0 8 -9 4 -20z m-183 -2 c11 -9 13 -20
8 -38 -8 -24 -8 -24 -9 -2 -1 12 -5 22 -10 22 -5 0 -11 7 -15 15 -7 18 5 19
26 3z m262 -23 c3 -8 -1 -21 -10 -29 -9 -9 -10 -17 -4 -21 5 -3 10 -12 10 -18
0 -7 -7 -4 -14 6 -7 9 -23 17 -35 17 -11 0 -21 4 -21 9 0 14 26 21 37 10 6 -6
14 -4 23 6 11 13 9 15 -9 15 -12 0 -19 5 -16 10 9 15 32 12 39 -5z m-257 -77
c-3 -7 -5 -2 -5 12 0 14 2 19 5 13 2 -7 2 -19 0 -25z m-122 -67 c3 -5 -7 -19
-21 -30 -28 -22 -50 -28 -39 -12 3 5 0 13 -7 17 -8 5 -3 12 17 20 37 16 42 16
50 5z m200 -31 c3 -5 -1 -10 -9 -10 -9 0 -16 5 -16 10 0 6 4 10 9 10 6 0 13
-4 16 -10z m-375 -155 c0 -8 -4 -15 -10 -15 -5 0 -10 7 -10 15 0 8 5 15 10 15
6 0 10 -7 10 -15z m3 -51 c3 -3 3 -12 0 -20 -4 -10 -9 -12 -18 -4 -9 8 -14 5
-18 -10 -6 -24 -27 -27 -27 -4 0 8 5 12 10 9 6 -3 10 0 10 9 0 18 30 33 43 20z
m3 -65 c8 -14 -11 -33 -25 -25 -11 7 -4 36 9 36 5 0 12 -5 16 -11z m-46 -36
c0 -20 -3 -24 -11 -16 -7 7 -9 19 -6 27 10 24 17 19 17 -11z m97 -15 c-3 -8
-6 -5 -6 6 -1 11 2 17 5 13 3 -3 4 -12 1 -19z m43 -18 c0 -5 -4 -10 -10 -10
-5 0 -10 5 -10 10 0 6 5 10 10 10 6 0 10 -4 10 -10z m-120 -33 c0 -5 -4 -5
-10 -2 -5 3 -10 14 -10 23 0 15 2 15 10 2 5 -8 10 -19 10 -23z m-13 -49 c-3
-7 -5 -2 -5 12 0 14 2 19 5 13 2 -7 2 -19 0 -25z m163 22 c0 -5 -2 -10 -4 -10
-3 0 -8 5 -11 10 -3 6 -1 10 4 10 6 0 11 -4 11 -10z m-110 -160 c0 -5 -4 -10
-10 -10 -5 0 -10 5 -10 10 0 6 5 10 10 10 6 0 10 -4 10 -10z"/>
<path d="M920 2870 c0 -5 -9 -10 -20 -10 -11 0 -20 -4 -20 -9 0 -4 11 -6 25
-3 14 2 32 -1 41 -9 12 -10 15 -10 12 2 -6 26 -38 51 -38 29z"/>
<path d="M1138 2763 c7 -3 16 -2 19 1 4 3 -2 6 -13 5 -11 0 -14 -3 -6 -6z"/>
<path d="M2166 2744 c-5 -12 -1 -14 15 -9 16 5 20 3 19 -12 -4 -34 0 -41 25
-45 30 -6 31 -1 8 32 -36 52 -56 63 -67 34z"/>
<path d="M1120 2699 c6 -21 4 -29 -7 -33 -20 -8 -39 4 -23 14 7 4 9 13 5 20
-5 8 -12 6 -24 -7 -17 -17 -16 -20 18 -50 20 -18 39 -33 44 -33 15 0 6 -18
-12 -23 -13 -3 -18 0 -15 8 6 15 -22 39 -36 30 -15 -10 -12 -28 4 -22 9 4 13
1 10 -6 -4 -11 27 -53 97 -136 23 -28 43 -17 37 20 -2 18 -8 23 -23 21 -11 -2
-17 -1 -13 3 4 4 -2 20 -13 36 l-20 28 21 21 c11 11 26 20 34 20 27 0 28 20 2
51 -14 17 -26 36 -26 44 0 7 -15 15 -34 17 -32 4 -33 3 -26 -23z m76 -44 c6
-15 -17 -45 -35 -45 -14 0 -14 13 1 28 9 9 9 12 0 12 -7 0 -12 5 -12 10 0 16
40 12 46 -5z m-1 -175 c3 -5 1 -10 -4 -10 -6 0 -11 5 -11 10 0 6 2 10 4 10 3
0 8 -4 11 -10z"/>
<path d="M2246 2706 c3 -9 11 -16 16 -16 13 0 5 23 -10 28 -7 2 -10 -2 -6 -12z"/>
<path d="M1230 2680 c-12 -8 -12 -10 2 -15 20 -8 41 2 33 16 -8 11 -16 11 -35
-1z"/>
<path d="M2000 2645 c0 -8 7 -15 15 -15 8 0 15 4 15 9 0 5 -7 11 -15 15 -9 3
-15 0 -15 -9z"/>
<path d="M2017 2593 c-4 -3 -7 -13 -7 -21 0 -12 3 -12 15 -2 8 7 15 16 15 21
0 11 -14 12 -23 2z"/>
<path d="M2087 2593 c-15 -14 -6 -31 13 -26 11 3 20 12 20 19 0 14 -22 19 -33
7z"/>
<path d="M1831 2474 c0 -11 3 -14 6 -6 3 7 2 16 -1 19 -3 4 -6 -2 -5 -13z"/>
<path d="M1470 2470 c-9 -28 -9 -70 0 -70 17 0 24 29 12 53 -6 12 -11 20 -12
17z"/>
<path d="M1927 2410 c3 -11 12 -20 19 -20 19 0 18 26 -2 34 -22 9 -23 8 -17
-14z"/>
<path d="M680 2323 c-19 -2 -51 -11 -70 -21 -35 -16 -41 -18 -60 -21 -5 0 -10
-8 -10 -17 0 -8 -4 -13 -9 -10 -5 3 -28 -11 -51 -32 -29 -26 -40 -42 -35 -54
12 -30 32 -28 32 3 0 37 6 43 47 43 26 0 33 4 30 16 -3 8 1 5 7 -7 15 -28 29
-29 36 -3 6 24 1 24 52 -1 43 -20 93 -19 107 3 10 16 -17 27 -48 21 -16 -3
-28 -1 -28 5 0 10 45 22 82 22 13 0 18 -5 15 -14 -7 -19 30 -48 53 -41 10 3
21 1 25 -5 3 -5 15 -10 25 -10 14 0 18 5 13 18 -6 15 -5 15 10 3 15 -12 17
-11 17 3 0 9 5 16 10 16 13 0 13 -16 -1 -42 -9 -17 -8 -19 9 -14 11 4 24 0 32
-9 8 -10 9 -15 1 -15 -6 0 -11 -5 -11 -11 0 -5 4 -8 9 -5 10 6 35 -20 45 -48
5 -15 9 -16 21 -6 9 7 19 10 23 6 4 -4 -3 -16 -16 -26 -13 -11 -18 -21 -12
-25 5 -3 10 -21 10 -40 0 -27 5 -34 25 -39 28 -7 65 12 65 33 0 8 3 12 6 8 11
-11 -7 -47 -24 -47 -15 0 -15 -1 0 -17 15 -15 16 -19 1 -47 l-16 -31 24 22
c16 14 32 20 45 17 37 -10 37 23 1 73 -17 25 -38 55 -46 67 -29 42 -64 75 -74
69 -6 -3 -7 -1 -3 5 3 5 -6 25 -21 43 -99 118 -219 174 -343 162z m125 -23 c7
-12 -22 -12 -50 0 -17 7 -15 9 12 9 17 1 35 -3 38 -9z m-142 -17 c11 4 14 1
10 -9 -6 -16 -33 -19 -33 -4 0 6 -3 9 -7 9 -20 -3 -27 2 -13 11 9 6 17 5 21
-2 4 -6 14 -8 22 -5z m-67 -30 c-8 -8 -36 5 -36 17 0 7 6 7 21 0 11 -7 18 -14
15 -17z m229 7 c-20 -23 -29 -21 -19 4 3 9 13 16 22 16 13 0 12 -3 -3 -20z
m45 -10 c0 -5 -7 -10 -15 -10 -8 0 -15 5 -15 10 0 6 7 10 15 10 8 0 15 -4 15
-10z m95 -40 c3 -5 1 -10 -4 -10 -6 0 -11 5 -11 10 0 6 2 10 4 10 3 0 8 -4 11
-10z m65 -76 c0 -8 -4 -12 -10 -9 -5 3 -10 10 -10 16 0 5 5 9 10 9 6 0 10 -7
10 -16z m63 -78 c7 -17 -11 -36 -32 -36 -13 1 -12 4 4 17 20 15 19 15 -5 10
-24 -6 -24 -5 -6 8 25 19 32 19 39 1z m-13 -66 c0 -5 -7 -10 -15 -10 -8 0 -15
5 -15 10 0 6 7 10 15 10 8 0 15 -4 15 -10z m87 -66 c-9 -9 -28 6 -21 18 4 6
10 6 17 -1 6 -6 8 -13 4 -17z"/>
<path d="M1360 2316 c0 -8 9 -13 24 -12 18 1 22 4 14 14 -14 16 -38 15 -38 -2z"/>
<path d="M2470 2323 c-19 -2 -44 -8 -55 -12 -11 -5 -28 -12 -37 -15 -12 -3
-16 -11 -11 -23 8 -22 35 -43 45 -37 15 9 8 43 -9 47 -10 2 0 4 22 4 22 0 32
-2 22 -5 -16 -3 -18 -10 -12 -40 9 -47 10 -48 44 -35 16 6 41 8 55 6 17 -4 26
-1 26 7 0 9 -12 11 -40 7 -30 -4 -40 -2 -40 9 0 8 9 14 20 14 25 0 26 16 3 29
-16 9 -16 10 5 11 12 0 22 5 22 10 0 6 5 10 10 10 6 0 10 -7 10 -15 0 -9 6
-12 15 -9 8 4 15 1 15 -5 0 -6 -5 -11 -12 -11 -9 0 -9 -3 -1 -11 6 -6 9 -17 7
-23 -2 -6 9 -17 25 -24 25 -11 35 -11 66 3 33 13 36 13 25 0 -9 -10 -9 -15 -1
-15 6 0 11 -17 11 -41 0 -32 3 -40 14 -36 8 3 20 -1 26 -9 7 -8 18 -14 25 -14
16 0 50 -38 42 -47 -4 -3 -18 4 -32 17 -18 17 -28 21 -36 13 -8 -8 -4 -17 12
-32 l23 -21 -22 0 c-12 0 -22 5 -22 11 0 5 -5 7 -10 4 -21 -13 3 -25 50 -25
43 0 48 -2 43 -20 -3 -11 -9 -17 -14 -14 -5 3 -7 10 -4 15 4 5 -13 9 -37 8
-36 0 -39 -2 -20 -9 27 -11 28 -20 3 -20 -11 0 -23 9 -26 20 -3 11 -13 20 -21
20 -18 0 -55 -21 -71 -40 -9 -12 -14 -13 -25 -2 -10 10 -9 14 10 18 13 4 22
14 22 25 0 25 -14 24 -43 -3 -13 -13 -32 -29 -43 -36 -17 -12 -17 -12 9 -7 15
3 27 1 27 -5 0 -5 -7 -10 -15 -10 -9 0 -18 -7 -21 -15 -4 -8 -16 -15 -28 -14
-11 0 -15 3 -8 6 6 2 10 9 7 13 -8 13 -35 0 -35 -16 0 -18 48 -30 63 -15 6 6
21 11 33 11 13 0 25 4 28 9 6 9 84 20 196 28 41 2 77 6 79 8 2 2 10 -2 18 -10
15 -16 37 -21 30 -7 -2 4 -11 24 -21 45 -9 20 -21 35 -26 32 -6 -4 -7 2 -3 12
7 17 6 17 -21 0 -15 -10 -35 -16 -44 -14 -15 4 -15 5 1 6 11 1 15 6 11 13 -5
7 -2 9 9 5 23 -9 32 28 13 55 l-16 22 0 -22 c0 -12 -4 -22 -8 -22 -5 0 -7 15
-6 34 3 28 -5 41 -45 83 -79 82 -194 126 -301 116z m130 -22 c0 -5 8 -12 18
-15 10 -3 7 -4 -7 -3 -24 2 -44 27 -22 27 6 0 11 -4 11 -9z m64 -63 c-10 -16
-19 -7 -20 18 -2 23 -1 24 11 7 7 -10 11 -21 9 -25z m-34 3 c14 -26 13 -31 -6
-31 -8 0 -12 5 -9 10 3 6 -1 13 -9 16 -9 3 -13 10 -10 15 9 15 23 10 34 -10z
m101 -34 c-1 -12 -15 -9 -19 4 -3 6 1 10 8 8 6 -3 11 -8 11 -12z m39 -17 c0
-6 -7 -13 -16 -17 -13 -5 -12 -9 7 -30 13 -13 29 -21 36 -19 16 7 17 -10 1
-20 -6 -4 -14 -2 -16 4 -2 7 -8 12 -14 12 -5 0 -18 10 -27 22 -16 19 -17 23
-2 40 17 20 31 24 31 8z m40 -40 c0 -5 -2 -10 -4 -10 -3 0 -8 5 -11 10 -3 6
-1 10 4 10 6 0 11 -4 11 -10z m63 -137 c-7 -2 -19 -2 -25 0 -7 3 -2 5 12 5 14
0 19 -2 13 -5z m7 -23 c0 -5 -7 -10 -15 -10 -8 0 -15 5 -15 10 0 6 7 10 15 10
8 0 15 -4 15 -10z m-195 -10 c3 -5 -1 -10 -9 -10 -9 0 -16 5 -16 10 0 6 4 10
9 10 6 0 13 -4 16 -10z"/>
<path d="M2317 2261 c-40 -26 -41 -28 -21 -54 19 -23 20 -23 38 -5 13 12 23
15 30 8 24 -24 37 -1 14 25 -11 11 -16 10 -33 -5 -13 -12 -25 -16 -34 -11 -10
7 -7 12 15 22 15 8 29 20 32 27 5 16 -7 14 -41 -7z"/>
<path d="M2254 2209 c-7 -12 15 -31 28 -23 9 6 -1 34 -12 34 -5 0 -12 -5 -16
-11z"/>
<path d="M507 2203 c-4 -3 -7 -23 -7 -44 0 -21 -6 -39 -12 -42 -10 -4 -10 -7
0 -18 10 -11 12 -10 12 4 0 10 8 17 20 17 17 0 20 7 20 45 0 43 -14 58 -33 38z"/>
<path d="M1635 2180 c-7 -12 2 -12 30 0 19 8 19 9 -2 9 -12 1 -25 -3 -28 -9z"/>
<path d="M2222 2177 c-9 -10 -10 -17 -2 -22 15 -10 12 -21 -15 -53 -13 -16
-22 -32 -18 -36 11 -11 23 -6 23 9 0 8 5 15 10 15 6 0 10 6 10 13 0 7 12 20
28 30 26 16 27 17 5 23 -12 3 -23 13 -25 22 -3 14 -4 14 -16 -1z"/>
<path d="M1580 2169 c0 -5 5 -7 10 -4 6 3 10 8 10 11 0 2 -4 4 -10 4 -5 0 -10
-5 -10 -11z"/>
<path d="M413 2148 c-13 -14 -23 -30 -23 -36 0 -7 -4 -12 -10 -12 -5 0 -10 -7
-10 -16 0 -8 4 -12 10 -9 6 3 7 -1 3 -10 -4 -12 -8 -13 -13 -5 -5 9 -9 9 -14
1 -4 -6 -4 -15 -1 -21 3 -5 2 -10 -3 -10 -11 0 -36 -55 -31 -67 2 -4 8 -6 14
-4 24 9 229 10 215 1 -11 -7 -8 -10 16 -10 17 0 46 -5 64 -11 25 -9 34 -9 40
0 5 9 9 6 13 -8 6 -24 35 -28 43 -6 10 25 27 17 20 -10 -5 -20 -3 -25 14 -25
11 0 20 -4 20 -10 0 -5 7 -10 15 -10 8 0 40 -17 71 -37 31 -21 64 -42 72 -48
9 -5 61 -53 115 -105 54 -52 102 -96 106 -98 8 -3 46 65 46 83 0 5 10 19 23
32 13 13 21 27 18 32 -7 11 -56 11 -56 0 0 -5 5 -9 10 -9 6 0 10 -7 10 -15 0
-8 -9 -15 -20 -15 -11 0 -20 7 -20 15 0 10 -10 15 -34 15 -19 0 -38 5 -41 10
-14 23 -27 9 -22 -22 5 -29 5 -30 -5 -10 -6 12 -18 22 -27 22 -14 1 -13 3 3
15 17 13 14 41 -3 30 -5 -2 -7 7 -5 20 3 29 -13 33 -32 8 -12 -17 -14 -17 -31
0 -9 9 -13 17 -7 17 6 0 24 11 40 25 16 14 24 25 17 25 -6 0 -15 -4 -18 -10
-3 -5 -25 -10 -48 -10 -39 -1 -41 -2 -23 -15 24 -18 16 -19 -19 -3 -24 11 -24
12 -8 30 10 11 24 16 37 13 14 -4 11 0 -7 10 -16 9 -35 14 -43 11 -9 -3 -14 1
-14 14 0 16 -7 20 -37 21 -21 0 -47 4 -58 9 l-20 9 20 1 c15 1 12 4 -10 11
-16 5 -36 7 -42 4 -7 -2 -13 2 -13 10 0 8 5 15 10 15 6 0 10 7 10 15 0 9 -10
16 -27 16 -16 1 -46 3 -67 5 -25 2 -36 0 -30 -6 6 -6 30 -11 55 -13 24 -1 42
-6 39 -12 -8 -15 -81 -15 -129 1 -24 8 -52 12 -63 8 -10 -3 -24 -1 -31 4 -7 6
-21 12 -32 15 -11 2 -1 2 23 0 43 -4 107 12 130 35 7 6 18 12 23 12 19 0 8 28
-13 34 -38 10 -58 7 -58 -9 0 -8 6 -12 14 -9 11 4 13 0 9 -15 -3 -12 -7 -21
-10 -21 -11 0 -33 30 -33 44 0 9 -7 16 -15 16 -8 0 -15 -7 -15 -15 0 -9 -7
-18 -15 -21 -8 -4 -15 -12 -15 -20 0 -18 -76 -19 -86 -1 -4 6 -4 9 1 5 4 -4
14 0 23 9 13 12 13 19 3 35 -11 18 -11 20 4 14 9 -3 19 -6 21 -6 2 0 4 -7 4
-15 0 -8 5 -15 10 -15 14 0 12 19 -8 63 l-17 39 -22 -24z m124 -103 c8 -23 -4
-30 -21 -12 -8 8 -12 17 -9 21 11 11 23 7 30 -9z m-144 -48 c-8 -13 -23 3 -23
26 0 20 0 20 14 2 8 -11 12 -23 9 -28z m54 -3 c-3 -3 -12 -4 -19 -1 -8 3 -5 6
6 6 11 1 17 -2 13 -5z m348 -84 c3 -5 -1 -10 -10 -10 -9 0 -13 5 -10 10 3 6 8
10 10 10 2 0 7 -4 10 -10z m79 -45 c3 -8 1 -15 -4 -15 -6 0 -10 7 -10 15 0 8
2 15 4 15 2 0 6 -7 10 -15z m143 -112 c-3 -3 -11 -2 -17 2 -9 6 -9 10 1 16 14
8 27 -7 16 -18z m88 -43 c3 -5 13 -6 22 -3 11 4 14 3 9 -5 -5 -8 0 -12 13 -12
17 0 20 -6 19 -35 -1 -31 -3 -32 -14 -17 -8 10 -13 12 -14 5 0 -7 -7 -13 -15
-13 -9 0 -12 6 -9 15 4 9 0 15 -10 15 -9 0 -13 6 -10 14 3 8 1 17 -5 21 -6 3
-11 10 -11 16 0 12 17 12 25 -1z"/>
<path d="M902 2162 c-18 -6 15 -42 38 -42 18 0 34 -25 25 -40 -3 -4 1 -10 8
-13 8 -3 14 5 15 24 2 23 -3 32 -23 41 -14 6 -25 15 -25 19 0 10 -23 17 -38
11z"/>
<path d="M1637 2149 c8 -8 16 -8 30 0 16 9 14 10 -11 11 -22 0 -27 -3 -19 -11z"/>
<path d="M2162 2103 c-23 -26 -42 -52 -42 -58 0 -5 5 -3 10 5 5 8 10 12 10 7
0 -4 16 11 36 33 20 22 34 44 32 50 -1 5 -22 -11 -46 -37z"/>
<path d="M2280 2120 c-13 -8 -12 -10 3 -10 9 0 17 5 17 10 0 12 -1 12 -20 0z"/>
<path d="M2236 2085 c-3 -10 1 -15 13 -15 11 0 21 -6 24 -12 4 -10 7 -10 18 0
11 10 10 12 -4 12 -9 0 -17 7 -17 15 0 8 -6 15 -14 15 -8 0 -16 -7 -20 -15z"/>
<path d="M2162 2059 c3 -8 2 -23 -3 -34 -6 -17 -8 -17 -8 -3 -2 34 -71 3 -71
-31 1 -14 2 -14 14 2 13 16 14 16 18 -7 4 -19 -1 -27 -21 -35 -23 -10 -24 -10
-8 3 17 13 17 14 -1 18 -12 3 -23 -2 -30 -13 -16 -25 -16 -26 13 -33 28 -7 36
-46 10 -46 -8 0 -15 -6 -15 -13 0 -7 -9 -18 -20 -25 -11 -7 -20 -18 -20 -26 0
-7 -9 -16 -21 -19 -17 -5 -18 -3 -7 11 7 9 28 33 48 53 28 28 33 39 23 48 -19
17 -37 13 -49 -12 -6 -12 -24 -46 -39 -75 -26 -49 -27 -54 -12 -70 16 -15 17
-15 17 1 0 10 5 15 10 12 6 -3 8 -16 5 -28 -4 -14 3 -34 20 -56 14 -19 25 -40
25 -45 0 -6 9 -22 20 -36 l20 -25 19 25 c11 13 17 29 14 34 -3 5 -2 6 4 3 19
-12 69 56 72 98 2 33 1 37 -12 27 -12 -10 -16 -9 -21 3 -3 9 -2 13 4 10 11 -7
13 6 4 30 -5 13 -9 11 -21 -11 -7 -15 -10 -30 -5 -33 5 -3 14 -16 21 -29 10
-18 9 -23 -4 -28 -9 -4 -14 -13 -11 -20 4 -11 -1 -13 -19 -8 -26 6 -36 -10
-12 -19 9 -4 9 -6 -1 -6 -7 -1 -17 10 -22 24 -5 14 -12 25 -15 25 -7 0 0 -38
8 -46 10 -11 8 -44 -3 -44 -5 0 -7 7 -4 15 4 9 0 15 -10 15 -9 0 -16 8 -16 18
0 10 -5 23 -12 30 -9 9 -9 12 0 12 7 0 12 4 12 10 0 5 -7 7 -17 3 -14 -6 -15
-1 -9 38 8 49 21 62 48 48 15 -8 18 -6 18 14 0 12 5 28 12 35 7 7 11 29 10 51
-2 31 2 43 23 59 14 11 25 25 25 31 0 6 5 11 10 11 6 0 10 -7 10 -16 0 -8 5
-12 10 -9 6 3 10 2 10 -2 0 -5 9 -9 20 -10 14 -1 20 4 20 18 0 15 5 19 18 15
44 -12 98 -15 112 -6 27 18 -10 30 -72 23 -58 -6 -58 -6 -58 21 0 15 -6 26
-13 26 -8 0 -12 -12 -11 -32 1 -18 -1 -23 -3 -11 -2 12 -16 29 -30 38 -19 13
-25 14 -21 4z m-12 -69 c0 -5 -4 -10 -10 -10 -5 0 -10 5 -10 10 0 6 5 10 10
10 6 0 10 -4 10 -10z"/>
<path d="M945 2050 c-3 -5 -1 -10 4 -10 6 0 11 5 11 10 0 6 -2 10 -4 10 -3 0
-8 -4 -11 -10z"/>
<path d="M754 2025 c10 -8 23 -12 28 -9 14 9 -2 24 -25 24 -21 -1 -21 -1 -3
-15z"/>
<path d="M2432 2028 c-16 -16 -15 -28 1 -28 7 0 18 9 25 20 10 16 10 20 -1 20
-7 0 -18 -5 -25 -12z"/>
<path d="M2546 2031 c-17 -6 -17 -8 -4 -14 10 -3 19 0 22 9 3 8 4 14 3 13 -1
0 -11 -4 -21 -8z"/>
<path d="M2480 2020 c0 -5 4 -10 9 -10 6 0 13 5 16 10 3 6 -1 10 -9 10 -9 0
-16 -4 -16 -10z"/>
<path d="M760 1980 c0 -5 9 -10 20 -10 11 0 20 5 20 10 0 6 -9 10 -20 10 -11
0 -20 -4 -20 -10z"/>
<path d="M946 1952 c-10 -9 -7 -42 4 -42 6 0 10 -7 10 -15 0 -20 36 -19 44 1
9 23 0 29 -19 14 -12 -10 -15 -10 -15 2 0 8 5 19 11 25 7 7 4 12 -10 16 -11 2
-22 2 -25 -1z"/>
<path d="M1050 1936 c0 -31 14 -40 30 -21 10 12 10 18 0 30 -18 22 -30 18 -30
-9z"/>
<path d="M2248 1933 c-1 -16 -1 -39 -1 -53 1 -14 -1 -19 -4 -12 -7 19 -31 14
-38 -8 -3 -11 -11 -20 -16 -20 -18 0 -9 -32 11 -37 11 -3 20 -10 20 -15 0 -5
-4 -6 -10 -3 -6 4 -9 -10 -7 -34 1 -23 4 -41 7 -41 3 0 20 16 38 34 32 34 32
35 12 46 -11 6 -20 16 -20 23 0 7 3 8 8 2 25 -34 40 -37 76 -12 20 13 33 27
28 32 -4 5 -1 5 7 0 9 -5 19 -2 27 9 7 10 16 17 21 18 4 0 28 9 52 20 l45 20
-25 14 c-13 7 -33 13 -44 13 -18 0 -19 0 -2 -10 9 -5 17 -14 17 -19 0 -19 -21
-9 -56 25 -37 38 -49 42 -57 23 -4 -10 -8 -9 -16 2 -8 11 -12 5 -17 -28 -8
-53 -20 -54 -28 -2 -7 46 -25 54 -28 13z m95 -60 c-7 -3 -13 -10 -13 -17 0 -8
-13 -12 -35 -11 -19 0 -35 -3 -35 -7 0 -4 -4 -8 -10 -8 -5 0 -10 4 -10 9 0 11
62 36 92 38 13 0 17 -1 11 -4z m37 -7 c0 -3 -4 -8 -10 -11 -5 -3 -10 -1 -10 4
0 6 5 11 10 11 6 0 10 -2 10 -4z m-55 -46 c-3 -5 -12 -7 -20 -3 -21 7 -19 13
6 13 11 0 18 -4 14 -10z"/>
<path d="M895 1910 c-3 -5 1 -10 10 -10 9 0 13 5 10 10 -3 6 -8 10 -10 10 -2
0 -7 -4 -10 -10z"/>
<path d="M1197 1903 c-4 -3 -2 -12 4 -19 8 -9 6 -11 -9 -7 -18 4 -19 2 -9 -30
6 -20 14 -34 18 -31 4 2 10 -12 13 -31 8 -39 19 -44 36 -17 9 15 10 14 5 -5
-8 -28 11 -31 20 -4 5 17 -8 54 -25 71 -3 3 -5 12 -5 20 0 8 -6 14 -13 12 -7
-1 -12 3 -11 10 4 34 -7 48 -24 31z"/>
<path d="M2130 1896 c0 -9 5 -16 10 -16 6 0 10 4 10 9 0 6 -4 13 -10 16 -5 3
-10 -1 -10 -9z"/>
<path d="M1045 1833 c6 -28 40 -71 49 -62 2 2 8 17 12 33 6 26 5 28 -15 21
-17 -5 -21 -2 -21 14 0 13 -6 21 -16 21 -13 0 -15 -6 -9 -27z"/>
<path d="M2106 1793 c-15 -21 -16 -27 -5 -34 11 -6 11 -11 2 -20 -10 -10 -14
-9 -18 4 -15 49 -19 52 -23 18 -4 -38 2 -47 38 -55 27 -7 65 12 43 21 -7 2
-13 11 -13 19 0 8 -4 14 -10 14 -14 0 -13 27 2 32 6 2 9 9 7 15 -2 6 -12 0
-23 -14z"/>
<path d="M1120 1750 c0 -5 5 -10 11 -10 5 0 7 5 4 10 -3 6 -8 10 -11 10 -2 0
-4 -4 -4 -10z"/>
<path d="M505 1533 c-66 -17 -197 -104 -191 -126 1 -6 1 -8 -2 -4 -5 9 -32
-11 -32 -24 0 -4 9 -11 20 -14 11 -3 20 -11 20 -18 0 -8 -3 -8 -12 1 -18 18
-45 15 -53 -5 -3 -10 -7 -20 -8 -23 -1 -2 -12 -15 -25 -29 -12 -14 -20 -31
-17 -38 2 -8 1 -12 -4 -9 -5 3 -12 -1 -15 -10 -7 -18 39 -72 51 -60 4 4 0 12
-10 17 -9 6 -17 17 -17 24 0 20 16 19 24 -1 6 -16 8 -16 24 0 23 20 32 20 48
-1 12 -17 13 -16 14 4 0 12 -6 24 -12 26 -10 4 -9 8 2 16 12 8 12 12 -3 29 -9
10 -17 24 -17 31 0 8 -6 11 -15 7 -8 -3 -15 -1 -15 4 0 6 9 10 20 10 11 0 20
-4 20 -10 0 -5 11 -10 24 -10 17 0 31 10 43 30 16 28 53 42 53 20 0 -6 43 -10
110 -10 103 0 110 1 110 20 0 20 -26 25 -116 20 -30 -1 -56 18 -60 45 -1 7 -5
22 -9 34 -7 24 -5 24 71 22 29 -2 55 2 59 8 3 6 16 11 28 10 16 0 18 -2 7 -7
-12 -6 -8 -14 18 -40 17 -18 32 -27 32 -21 0 7 -8 18 -17 25 -15 11 -15 13 -3
14 9 0 23 -9 33 -20 23 -27 40 -25 35 4 -3 15 -1 23 6 20 7 -3 13 -16 14 -30
3 -35 7 -41 37 -46 19 -4 25 -1 25 12 0 18 27 47 36 38 2 -3 0 -17 -5 -31 -7
-18 -7 -27 2 -31 7 -2 4 -5 -7 -5 -15 -1 -17 -6 -12 -32 3 -17 6 -35 6 -40 0
-5 11 -9 23 -9 14 0 24 6 24 15 0 8 -6 15 -14 15 -7 0 -13 4 -13 8 0 16 12 21
29 12 9 -5 24 -11 35 -14 10 -4 16 -12 13 -20 -4 -9 3 -16 18 -19 14 -2 26 1
28 6 2 6 9 7 15 3 7 -4 10 -16 7 -27 -9 -27 14 -24 24 4 6 16 4 24 -8 29 -14
6 -14 7 0 7 26 1 51 -23 43 -42 -3 -9 -13 -17 -21 -17 -8 0 -13 -5 -11 -11 2
-6 7 -10 12 -9 5 1 13 -4 17 -12 6 -9 1 -14 -19 -18 -20 -4 -28 -12 -32 -34
-3 -16 -11 -31 -18 -34 -9 -3 -11 3 -6 22 6 24 3 26 -24 26 -47 0 -62 10 -62
40 0 26 -3 27 -57 33 -32 3 -93 3 -137 0 -65 -5 -80 -9 -84 -25 -2 -10 -13
-18 -23 -18 -12 0 -19 -7 -19 -20 0 -17 -7 -20 -40 -20 -33 0 -40 -3 -40 -19
0 -11 9 -26 21 -35 l21 -14 -22 -12 c-12 -7 -20 -7 -16 -2 10 16 -5 42 -24 42
-10 0 -20 -9 -23 -21 -5 -17 -3 -18 9 -8 8 6 18 9 22 5 4 -4 -1 -12 -11 -17
-9 -6 -17 -15 -17 -22 0 -17 -37 -39 -45 -27 -3 6 1 10 9 10 9 0 16 5 16 11 0
5 -4 8 -9 5 -14 -9 -20 16 -9 37 5 10 8 21 5 23 -8 8 -64 -54 -70 -78 -6 -21
-11 -23 -54 -20 -26 2 -54 9 -61 15 -10 8 -16 7 -23 -4 -13 -20 -11 -29 7 -36
9 -3 20 0 25 8 7 11 9 9 9 -7 0 -20 -46 -51 -58 -39 -3 3 0 5 6 5 6 0 9 7 6
15 -5 11 -10 13 -19 5 -9 -8 -14 -6 -19 5 -3 8 -1 15 5 15 6 0 9 12 7 28 -2
22 1 27 19 27 23 0 31 11 17 23 -4 4 -4 1 0 -5 10 -18 -9 -16 -24 2 -10 12
-10 19 -2 27 15 15 16 58 2 58 -5 0 -10 -7 -10 -15 0 -8 -4 -15 -10 -15 -5 0
-10 -9 -10 -20 0 -11 -4 -20 -10 -20 -13 0 -13 -37 0 -45 6 -3 10 -12 10 -18
0 -7 -4 -6 -10 3 -5 8 -12 12 -15 8 -9 -9 -41 -160 -48 -228 l-7 -55 31 32
c37 41 153 134 197 159 18 10 30 24 28 31 -3 7 6 21 20 32 15 12 20 22 14 26
-14 8 -3 25 16 25 11 0 13 -6 8 -22 -4 -13 -9 -25 -13 -28 -3 -3 -12 -13 -19
-22 -9 -11 9 -6 55 16 37 19 84 37 103 41 46 10 55 16 39 26 -11 7 -10 9 3 9
9 0 18 -4 20 -10 2 -6 37 -5 98 4 105 15 141 16 134 4 -3 -4 14 -8 38 -8 24 0
76 -9 116 -20 39 -11 74 -20 77 -20 3 0 5 31 5 68 0 37 4 72 9 77 5 6 11 34
13 62 5 50 3 54 -27 77 -30 23 -92 62 -173 107 -18 11 -41 19 -52 19 -11 0
-20 4 -20 8 0 24 -230 61 -285 45z m170 -23 c3 -5 1 -10 -4 -10 -6 0 -11 5
-11 10 0 6 2 10 4 10 3 0 8 -4 11 -10z m-225 -93 c0 -6 -9 -1 -21 12 -12 13
-18 29 -14 38 5 14 9 12 20 -11 8 -16 15 -33 15 -39z m419 16 c-12 -15 -12
-16 3 -10 9 3 22 0 28 -8 6 -8 19 -11 27 -8 11 4 14 2 9 -5 -11 -18 -51 -14
-70 7 -18 20 -15 41 6 41 6 0 5 -7 -3 -17z m-459 -24 c0 -5 -8 -9 -17 -9 -15
0 -16 2 -3 10 13 8 12 10 -3 10 -10 0 -15 5 -12 10 7 12 35 -5 35 -21z m575
-55 c-9 -9 -19 -13 -23 -10 -3 4 0 11 8 16 24 15 33 11 15 -6z m-705 -66 c0
-7 -7 -22 -15 -32 -12 -16 -17 -18 -28 -7 -9 11 -9 14 1 18 6 3 12 11 12 19 0
8 7 14 15 14 8 0 15 -6 15 -12z m566 -42 c21 -21 18 -26 -16 -26 -16 0 -30 -4
-30 -10 0 -5 12 -10 28 -10 73 0 103 -12 121 -48 l18 -36 29 45 c22 35 29 40
32 25 2 -10 -2 -22 -8 -26 -7 -5 -10 -15 -7 -23 4 -11 1 -14 -8 -10 -8 3 -18
-2 -21 -10 -5 -13 -9 -14 -24 -5 -10 7 -16 16 -14 20 3 4 -2 8 -10 8 -10 0
-13 6 -10 15 5 11 -1 15 -20 15 -14 0 -26 -4 -26 -10 0 -13 -153 -1 -161 13
-11 16 -62 -1 -55 -18 3 -9 -1 -15 -9 -15 -11 0 -15 13 -15 51 0 45 2 50 18
44 34 -15 62 -17 62 -6 0 6 15 11 33 11 17 0 39 5 47 10 20 13 29 12 46 -4z
m-251 -87 c9 -14 6 -16 -35 -23 -28 -5 -31 -4 -12 4 33 14 27 23 -10 16 -24
-4 -29 -3 -18 4 20 13 67 13 75 -1z m32 -35 c-3 -3 -12 -4 -19 -1 -8 3 -5 6 6
6 11 1 17 -2 13 -5z m-487 -104 c0 -5 -4 -10 -10 -10 -5 0 -10 5 -10 10 0 6 5
10 10 10 6 0 10 -4 10 -10z m-10 -60 c-4 -19 -9 -30 -9 -25 -1 6 -8 -1 -16
-15 -8 -14 -14 -20 -15 -15 0 6 7 21 16 33 9 13 14 26 11 29 -5 4 15 34 20 29
1 0 -2 -17 -7 -36z m120 19 c0 -6 -4 -7 -10 -4 -5 3 -10 11 -10 16 0 6 5 7 10
4 6 -3 10 -11 10 -16z m-80 -21 c0 -18 -2 -20 -9 -8 -6 8 -7 18 -5 22 9 14 14
9 14 -14z m50 0 c0 -13 -23 -5 -28 10 -2 7 2 10 12 6 9 -3 16 -11 16 -16z
m-79 -45 c-12 -20 -14 -14 -5 12 4 9 9 14 11 11 3 -2 0 -13 -6 -23z m56 11
c-3 -3 -12 -4 -19 -1 -8 3 -5 6 6 6 11 1 17 -2 13 -5z"/>
<path d="M2555 1530 c-16 -6 -46 -15 -65 -21 -72 -21 -159 -65 -252 -126 l-68
-45 1 -51 c1 -29 6 -58 11 -64 6 -7 10 -45 9 -84 -1 -81 -11 -76 102 -46 57
16 334 26 355 13 10 -6 90 -27 110 -28 6 -1 12 -5 12 -10 0 -4 16 -8 35 -8 19
0 35 -4 35 -10 0 -5 5 -10 11 -10 6 0 22 -9 36 -20 14 -11 35 -20 47 -20 17 0
18 -2 6 -10 -11 -7 -11 -10 -2 -10 15 0 149 -103 173 -133 10 -12 21 -17 29
-12 8 5 11 4 7 -2 -4 -6 0 -18 7 -28 12 -16 13 -12 9 36 -2 30 -9 67 -14 83
-5 16 -9 42 -9 57 0 15 -4 31 -10 34 -5 3 -10 14 -10 23 0 22 -43 132 -52 132
-4 0 -5 -8 -1 -17 8 -23 -1 -14 -17 16 -8 15 -8 21 -1 17 14 -9 14 5 1 39 -6
16 -14 23 -22 19 -7 -5 -8 -3 -3 5 4 7 2 24 -6 37 -13 25 -31 33 -28 12 1 -7
-2 -22 -6 -32 -6 -13 -4 -21 3 -24 18 -6 15 -82 -3 -82 -17 0 -19 -9 -5 -30 8
-12 13 -13 30 -2 11 6 24 12 30 12 15 0 12 -27 -6 -44 -14 -15 -14 -16 0 -16
9 0 16 4 16 10 0 5 7 7 16 3 9 -3 12 -8 5 -12 -6 -4 -6 -12 -2 -20 7 -11 11
-10 20 5 9 17 10 15 11 -13 0 -17 -4 -35 -10 -38 -19 -11 -10 -43 20 -75 17
-18 30 -40 30 -49 -1 -12 -7 -9 -23 12 -22 26 -45 38 -31 16 4 -7 1 -10 -7 -7
-8 3 -13 13 -11 23 4 19 -25 55 -44 55 -24 0 -44 31 -44 71 0 35 -13 53 -22
31 -1 -5 -30 -11 -63 -14 -33 -3 -50 -4 -37 -1 18 3 22 11 21 36 -1 24 -3 26
-6 10 -7 -36 -33 -29 -33 8 0 27 -2 30 -15 19 -9 -7 -14 -19 -11 -26 3 -7 1
-16 -4 -19 -5 -3 -12 4 -15 16 -5 16 0 27 19 44 14 12 23 25 19 29 -3 3 -30 6
-60 6 -29 0 -53 5 -53 10 0 6 -18 10 -40 10 -22 0 -40 -4 -40 -10 0 -5 -25
-10 -56 -10 -47 0 -57 -3 -61 -20 -3 -11 -14 -20 -24 -20 -12 0 -19 7 -19 20
0 22 -23 25 -91 14 -31 -5 -37 -10 -35 -30 1 -18 7 -24 24 -24 13 0 20 4 17
10 -7 12 12 12 40 0 19 -8 19 -9 -3 -9 -13 -1 -31 -5 -40 -10 -9 -5 -37 -5
-62 -1 -25 4 -35 8 -23 9 27 1 39 19 23 34 -10 9 -14 9 -17 0 -9 -24 -25 -13
-19 11 5 19 1 26 -13 31 -10 3 -25 20 -31 38 -7 18 -19 37 -26 43 -7 6 -11 20
-8 31 5 18 10 20 37 12 17 -5 33 -6 36 -4 2 3 -1 5 -7 5 -7 0 -12 5 -12 10 0
6 14 10 30 10 30 0 43 -23 18 -33 -7 -3 -1 -6 14 -6 33 -1 58 33 31 43 -9 4
-13 9 -10 13 4 3 14 0 23 -7 9 -8 18 -10 22 -4 4 5 25 10 47 11 22 0 58 6 80
11 l40 10 -47 1 c-26 1 -49 6 -52 14 -5 10 -7 10 -12 0 -8 -19 -22 -16 -20 5
0 9 -6 17 -14 17 -9 0 -14 -7 -12 -17 3 -21 -7 -22 -42 -7 -29 13 -26 30 3 22
10 -3 22 0 25 6 4 6 18 11 32 11 15 0 24 6 24 15 0 8 5 15 10 15 6 0 10 -7 10
-15 0 -8 7 -15 15 -15 8 0 15 5 15 10 0 6 9 10 20 10 11 0 20 -4 20 -10 0 -5
22 -10 49 -10 44 0 49 3 55 25 4 14 13 25 22 25 8 0 12 5 9 10 -3 6 1 10 10
10 9 0 13 -4 10 -10 -3 -5 -1 -10 5 -10 6 0 8 -4 5 -10 -3 -5 -14 -10 -25 -10
-13 0 -17 -5 -13 -20 3 -11 12 -20 20 -20 8 0 17 9 20 20 3 11 9 20 13 20 5 0
16 3 26 7 12 4 15 3 10 -6 -5 -7 0 -21 9 -31 15 -16 15 -22 5 -35 -7 -8 -9
-15 -5 -15 4 0 14 8 21 18 12 15 13 13 14 -20 0 -34 3 -38 25 -38 14 0 37 11
51 25 30 31 32 31 30 3 -1 -13 -7 -22 -14 -21 -8 2 -9 -4 -3 -19 10 -28 31
-36 24 -10 -3 12 2 22 12 26 13 5 16 2 11 -10 -8 -21 17 -47 32 -32 7 7 8 -2
1 -32 -13 -58 -4 -62 10 -4 9 35 9 49 0 60 -10 12 -14 12 -21 2 -6 -9 -7 -6
-3 8 4 17 -6 32 -48 70 -87 80 -147 107 -242 111 -44 1 -93 -2 -110 -7z m63
-17 c-10 -2 -26 -2 -35 0 -10 3 -2 5 17 5 19 0 27 -2 18 -5z m-38 -18 c0 -2
-6 -5 -13 -8 -8 -3 -14 1 -14 8 0 7 6 11 14 8 7 -3 13 -6 13 -8z m57 -1 c-3
-3 -12 -4 -19 -1 -8 3 -5 6 6 6 11 1 17 -2 13 -5z m170 -20 c13 -13 14 -17 3
-24 -7 -5 -21 -3 -32 3 -10 7 -14 13 -8 15 6 2 8 8 4 13 -9 15 16 10 33 -7z
m82 -52 c0 -12 -2 -13 -6 -3 -3 8 -8 9 -12 3 -3 -6 -20 -13 -36 -16 -17 -3
-23 -3 -15 0 8 4 23 15 34 25 21 20 36 16 35 -9z m-569 -32 c-8 -5 -24 -10
-35 -10 -17 0 -17 2 -5 10 8 5 24 10 35 10 17 0 17 -2 5 -10z m-60 -20 c0 -5
-4 -10 -10 -10 -5 0 -10 5 -10 10 0 6 5 10 10 10 6 0 10 -4 10 -10z m-37 -147
c-3 -6 -11 -9 -19 -6 -17 6 -17 8 -2 36 11 21 11 21 18 2 4 -11 5 -25 3 -32z
m37 -38 c0 -14 6 -25 13 -25 6 0 4 -5 -6 -11 -9 -6 -15 -14 -12 -20 4 -5 -3
-9 -13 -9 -13 0 -21 9 -25 28 -6 33 1 43 14 19 6 -9 15 -17 20 -17 6 0 3 7 -5
16 -17 17 -20 27 -9 37 13 14 23 6 23 -18z m460 -15 c0 -5 -11 -10 -25 -10
-30 0 -33 -16 -4 -23 12 -3 18 -10 15 -15 -3 -6 0 -13 6 -15 9 -4 8 -6 -2 -6
-9 -1 -22 8 -30 19 -8 11 -21 20 -30 20 -13 0 -13 1 0 10 10 6 11 10 3 10 -7
0 -13 5 -13 10 0 6 18 10 40 10 22 0 40 -4 40 -10z m-97 -37 c-7 -2 -19 -2
-25 0 -7 3 -2 5 12 5 14 0 19 -2 13 -5z m137 -8 c21 -25 2 -31 -20 -7 -15 16
-17 22 -7 22 8 0 20 -7 27 -15z m-447 -12 c-7 -2 -19 -2 -25 0 -7 3 -2 5 12 5
14 0 19 -2 13 -5z m647 -53 c0 -5 -7 -10 -15 -10 -8 0 -15 5 -15 10 0 6 7 10
15 10 8 0 15 -4 15 -10z m170 -86 c0 -8 -4 -12 -10 -9 -5 3 -10 13 -10 21 0 8
5 12 10 9 6 -3 10 -13 10 -21z m-112 -12 c2 -7 -2 -10 -12 -6 -9 3 -16 11 -16
16 0 13 23 5 28 -10z"/>
<path d="M488 1474 c21 -29 37 -30 70 -2 15 11 20 19 11 16 -8 -3 -34 -3 -57
2 l-41 7 17 -23z"/>
<path d="M2480 1420 c0 -5 5 -10 11 -10 5 0 7 5 4 10 -3 6 -8 10 -11 10 -2 0
-4 -4 -4 -10z"/>
<path d="M706 1402 c-13 -13 -5 -23 14 -17 24 8 39 -20 20 -38 -10 -9 -14 -9
-17 1 -7 17 -83 16 -83 -2 0 -15 92 -28 98 -14 2 4 17 8 33 8 35 0 39 22 7 42
-27 18 -65 28 -72 20z"/>
<path d="M2640 1380 c0 -16 -7 -20 -37 -21 -37 -1 -100 -16 -75 -18 6 -1 12
-5 12 -11 0 -5 -18 -10 -40 -10 -29 0 -40 4 -40 15 0 22 -33 18 -48 -5 -10
-17 -8 -21 18 -35 41 -21 219 -21 260 0 34 18 40 51 11 60 -11 3 -23 15 -26
26 -8 25 -35 25 -35 -1z m66 -47 c-10 -10 -136 -11 -142 -1 -3 4 30 8 72 8 43
0 74 -3 70 -7z"/>
<path d="M2240 1315 c0 -8 2 -15 4 -15 2 0 6 7 10 15 3 8 1 15 -4 15 -6 0 -10
-7 -10 -15z"/>
<path d="M940 1290 c0 -5 7 -10 15 -10 8 0 15 5 15 10 0 6 -7 10 -15 10 -8 0
-15 -4 -15 -10z"/>
<path d="M2260 1280 c0 -11 5 -20 10 -20 6 0 10 9 10 20 0 11 -4 20 -10 20 -5
0 -10 -9 -10 -20z"/>
<path d="M958 1263 c-10 -3 -18 -8 -18 -13 0 -5 -8 -11 -17 -13 -10 -3 1 -5
25 -6 30 -1 42 3 42 13 0 18 -10 24 -32 19z"/>
<path d="M255 1200 c-4 -6 -3 -14 0 -20 9 -15 35 -12 35 4 0 17 -27 29 -35 16z"/>
<path d="M278 1163 c-21 -5 -23 -19 -6 -29 6 -4 16 0 23 9 7 9 15 14 18 10 4
-3 7 -1 7 5 0 12 -11 13 -42 5z"/>
<path d="M335 1150 c4 -6 11 -8 16 -5 14 9 11 15 -7 15 -8 0 -12 -5 -9 -10z"/>
<path d="M3024 1059 c-4 -7 -2 -15 4 -17 18 -6 14 -32 -5 -32 -9 0 -14 -3 -10
-6 9 -9 47 6 47 19 0 7 -7 20 -14 30 -11 14 -16 15 -22 6z"/>
<path d="M1510 1026 c-95 -30 -196 -102 -271 -191 -48 -55 -50 -62 -44 -100 7
-48 21 -65 29 -37 9 26 91 102 111 102 11 0 15 -11 15 -38 0 -35 -7 -45 -61
-95 -66 -60 -67 -65 -37 -140 10 -27 11 -27 25 -7 8 11 23 20 35 20 19 0 20
-4 14 -69 -6 -55 -4 -77 9 -102 10 -19 20 -28 26 -22 16 16 32 107 39 233 7
130 13 158 39 200 18 29 31 40 50 40 11 0 12 -14 7 -67 -4 -38 -8 -107 -11
-155 -2 -48 -8 -95 -13 -105 -5 -10 -12 -35 -16 -55 -4 -21 -18 -62 -31 -90
l-25 -53 25 -24 c20 -21 26 -22 39 -11 9 7 16 19 16 27 0 8 7 13 18 11 12 -2
18 -16 22 -48 5 -41 8 -45 34 -48 l29 -4 -7 155 c-4 85 -11 170 -16 188 -25
86 -2 246 40 284 18 16 20 16 43 -9 48 -52 54 -120 27 -346 -20 -172 -22 -227
-11 -248 19 -36 59 -27 52 12 -1 5 1 22 4 37 8 36 32 37 47 4 13 -30 29 -32
51 -7 22 24 21 29 -3 80 -11 22 -20 48 -20 56 0 8 -4 17 -9 20 -12 8 -21 60
-32 196 -16 199 -17 195 6 195 14 0 29 -16 49 -55 26 -48 30 -66 31 -145 2
-110 14 -210 30 -248 l12 -29 22 28 c18 23 21 36 16 64 -11 62 -10 113 2 117
6 2 21 -5 33 -17 25 -25 31 -21 49 33 12 36 11 41 -11 65 -12 15 -32 33 -43
41 -46 35 -65 61 -65 91 0 54 27 50 90 -16 l58 -60 11 31 c6 17 11 39 11 48 0
23 -156 179 -212 211 -109 63 -234 83 -328 52z"/>
</g>
</svg>
